# xmcd CD database file
#
# Track frame offsets:
#	150
#	11747
#	25043
#	36991
#	49291
#	63882
#	92970
#	105341
#	119721
#	134079
#	150300
#	159018
#	171613
#	186621
#	201499
#	214784
#	229620
#	240703
#	256586
#	276760
#	285235
#
# Disc length: 3961 seconds
#
# Revision: 0
# Processed by: cddbd v1.5.1PL0 Copyright (c) Steve Scherf et al.
# Submitted via: CDex 1.51
#
DISCID=2c0f7715
DTITLE=Bullamakanka - Then and Now
DYEAR=2001
DGENRE=Country
TTITLE0=Bullas in Bilambil
TTITLE1=Waratah and Wattle
TTITLE2=Riding High
TTITLE3=Home among the Gun Trees
TTITLE4=Bowing Off (It's a Gas)
TTITLE5=Orange Blossom Special
TTITLE6=Gayleen
TTITLE7=Women do
TTITLE8=Man on the Land
TTITLE9=Wild Horses
TTITLE10=Nuts 'n' Raisins
TTITLE11=Dust
TTITLE12=Bellbirds
TTITLE13=Ballad of Dr. Who
TTITLE14=Miles from Nowthere
TTITLE15=On the Wallaby
TTITLE16=Reedy Creek
TTITLE17=Jim Jones
TTITLE18=The Man from Herseshoe Bend
TTITLE19=Jigaroo
TTITLE20=Koori-oop
EXTD=YEAR: 2001
EXTT0=
EXTT1=
EXTT2=
EXTT3=
EXTT4=
EXTT5=
EXTT6=
EXTT7=
EXTT8=
EXTT9=
EXTT10=
EXTT11=
EXTT12=
EXTT13=
EXTT14=
EXTT15=
EXTT16=
EXTT17=
EXTT18=
EXTT19=
EXTT20=
PLAYORDER=
